<mxfile host="app.diagrams.net" modified="2023-02-13T18:50:39.351Z" agent="5.0 (Windows NT 10.0; Win64; x64) AppleWebKit/537.36 (KHTML, like Gecko) Chrome/110.0.0.0 Safari/537.36" etag="wmKzemDtauz-sa3dIYAF" version="20.8.20" type="github">
  <diagram name="Page-1" id="bUjizvXI1Ob74S3Fz9Pd">
    <mxGraphModel dx="1050" dy="553" grid="1" gridSize="10" guides="1" tooltips="1" connect="1" arrows="1" fold="1" page="1" pageScale="1" pageWidth="827" pageHeight="1169" math="0" shadow="0">
      <root>
        <mxCell id="0" />
        <mxCell id="1" parent="0" />
        <mxCell id="SEJJL2JhkryHIVJPhwfK-19" style="edgeStyle=orthogonalEdgeStyle;rounded=0;orthogonalLoop=1;jettySize=auto;html=1;" edge="1" parent="1" source="SEJJL2JhkryHIVJPhwfK-1" target="SEJJL2JhkryHIVJPhwfK-2">
          <mxGeometry relative="1" as="geometry" />
        </mxCell>
        <mxCell id="SEJJL2JhkryHIVJPhwfK-1" value="&lt;b&gt;IDLE&lt;/b&gt;" style="rounded=1;whiteSpace=wrap;html=1;fillColor=#ffe6cc;strokeColor=#d79b00;" vertex="1" parent="1">
          <mxGeometry x="354" y="190" width="120" height="60" as="geometry" />
        </mxCell>
        <mxCell id="SEJJL2JhkryHIVJPhwfK-11" style="edgeStyle=orthogonalEdgeStyle;rounded=0;orthogonalLoop=1;jettySize=auto;html=1;exitX=0.5;exitY=1;exitDx=0;exitDy=0;entryX=0.5;entryY=0;entryDx=0;entryDy=0;" edge="1" parent="1" source="SEJJL2JhkryHIVJPhwfK-2" target="SEJJL2JhkryHIVJPhwfK-9">
          <mxGeometry relative="1" as="geometry" />
        </mxCell>
        <mxCell id="SEJJL2JhkryHIVJPhwfK-2" value="&lt;b&gt;Waiting Data&lt;/b&gt;" style="rounded=1;whiteSpace=wrap;html=1;" vertex="1" parent="1">
          <mxGeometry x="361" y="350" width="106" height="40" as="geometry" />
        </mxCell>
        <mxCell id="SEJJL2JhkryHIVJPhwfK-4" value="low level detected&lt;br&gt;[Rx==0]" style="text;html=1;align=center;verticalAlign=middle;resizable=0;points=[];autosize=1;strokeColor=none;fillColor=none;" vertex="1" parent="1">
          <mxGeometry x="414" y="280" width="120" height="40" as="geometry" />
        </mxCell>
        <mxCell id="SEJJL2JhkryHIVJPhwfK-7" value="bit time detected&lt;br&gt;{ shiftLeft() }" style="text;html=1;align=center;verticalAlign=middle;resizable=0;points=[];autosize=1;strokeColor=none;fillColor=none;" vertex="1" parent="1">
          <mxGeometry x="220" y="350" width="110" height="40" as="geometry" />
        </mxCell>
        <mxCell id="SEJJL2JhkryHIVJPhwfK-18" style="edgeStyle=orthogonalEdgeStyle;rounded=0;orthogonalLoop=1;jettySize=auto;html=1;entryX=0.5;entryY=0;entryDx=0;entryDy=0;" edge="1" parent="1" source="SEJJL2JhkryHIVJPhwfK-9" target="SEJJL2JhkryHIVJPhwfK-17">
          <mxGeometry relative="1" as="geometry" />
        </mxCell>
        <mxCell id="SEJJL2JhkryHIVJPhwfK-22" style="edgeStyle=orthogonalEdgeStyle;rounded=0;orthogonalLoop=1;jettySize=auto;html=1;exitX=0;exitY=0.5;exitDx=0;exitDy=0;" edge="1" parent="1" source="SEJJL2JhkryHIVJPhwfK-9" target="SEJJL2JhkryHIVJPhwfK-13">
          <mxGeometry relative="1" as="geometry" />
        </mxCell>
        <mxCell id="SEJJL2JhkryHIVJPhwfK-9" value="&lt;b&gt;Parity State&lt;br&gt;&lt;/b&gt;entry/ checkParityBit()" style="rounded=1;whiteSpace=wrap;html=1;" vertex="1" parent="1">
          <mxGeometry x="349.5" y="450" width="129" height="50" as="geometry" />
        </mxCell>
        <mxCell id="SEJJL2JhkryHIVJPhwfK-10" style="edgeStyle=orthogonalEdgeStyle;rounded=0;orthogonalLoop=1;jettySize=auto;html=1;exitX=0;exitY=0.75;exitDx=0;exitDy=0;entryX=0;entryY=0.25;entryDx=0;entryDy=0;" edge="1" parent="1" source="SEJJL2JhkryHIVJPhwfK-2" target="SEJJL2JhkryHIVJPhwfK-2">
          <mxGeometry relative="1" as="geometry">
            <Array as="points">
              <mxPoint x="330" y="380" />
              <mxPoint x="330" y="360" />
            </Array>
          </mxGeometry>
        </mxCell>
        <mxCell id="SEJJL2JhkryHIVJPhwfK-13" value="&lt;b&gt;Parity Error&lt;/b&gt;" style="rounded=1;whiteSpace=wrap;html=1;" vertex="1" parent="1">
          <mxGeometry x="90" y="455" width="110" height="40" as="geometry" />
        </mxCell>
        <mxCell id="SEJJL2JhkryHIVJPhwfK-14" value="&lt;b&gt;Frame Error&lt;/b&gt;" style="rounded=1;whiteSpace=wrap;html=1;" vertex="1" parent="1">
          <mxGeometry x="90" y="565" width="106" height="40" as="geometry" />
        </mxCell>
        <mxCell id="SEJJL2JhkryHIVJPhwfK-16" value="time period is finished" style="text;html=1;align=center;verticalAlign=middle;resizable=0;points=[];autosize=1;strokeColor=none;fillColor=none;" vertex="1" parent="1">
          <mxGeometry x="414" y="410" width="140" height="30" as="geometry" />
        </mxCell>
        <mxCell id="SEJJL2JhkryHIVJPhwfK-20" style="edgeStyle=orthogonalEdgeStyle;rounded=0;orthogonalLoop=1;jettySize=auto;html=1;entryX=1;entryY=0.5;entryDx=0;entryDy=0;" edge="1" parent="1" source="SEJJL2JhkryHIVJPhwfK-17" target="SEJJL2JhkryHIVJPhwfK-14">
          <mxGeometry relative="1" as="geometry">
            <mxPoint x="210" y="585" as="targetPoint" />
          </mxGeometry>
        </mxCell>
        <mxCell id="SEJJL2JhkryHIVJPhwfK-27" style="edgeStyle=orthogonalEdgeStyle;rounded=0;orthogonalLoop=1;jettySize=auto;html=1;exitX=0.5;exitY=1;exitDx=0;exitDy=0;entryX=0.5;entryY=0;entryDx=0;entryDy=0;" edge="1" parent="1" source="SEJJL2JhkryHIVJPhwfK-17" target="SEJJL2JhkryHIVJPhwfK-26">
          <mxGeometry relative="1" as="geometry" />
        </mxCell>
        <mxCell id="SEJJL2JhkryHIVJPhwfK-17" value="&lt;b&gt;Stop State&lt;br&gt;&lt;/b&gt;entry/ checkStopBit()" style="rounded=1;whiteSpace=wrap;html=1;" vertex="1" parent="1">
          <mxGeometry x="349" y="560" width="129" height="50" as="geometry" />
        </mxCell>
        <mxCell id="SEJJL2JhkryHIVJPhwfK-23" value="[stopBit!=1]" style="text;html=1;align=center;verticalAlign=middle;resizable=0;points=[];autosize=1;strokeColor=none;fillColor=none;" vertex="1" parent="1">
          <mxGeometry x="250" y="560" width="80" height="30" as="geometry" />
        </mxCell>
        <mxCell id="SEJJL2JhkryHIVJPhwfK-24" value="[stopBit==1]" style="text;html=1;align=center;verticalAlign=middle;resizable=0;points=[];autosize=1;strokeColor=none;fillColor=none;" vertex="1" parent="1">
          <mxGeometry x="409" y="620" width="90" height="30" as="geometry" />
        </mxCell>
        <mxCell id="SEJJL2JhkryHIVJPhwfK-26" value="&lt;b&gt;IDLE&lt;/b&gt;" style="rounded=1;whiteSpace=wrap;html=1;fillColor=#ffe6cc;strokeColor=#d79b00;" vertex="1" parent="1">
          <mxGeometry x="354" y="670" width="120" height="60" as="geometry" />
        </mxCell>
      </root>
    </mxGraphModel>
  </diagram>
</mxfile>
